<svg width="324" height="73" viewBox="0 0 324 73" fill="none" xmlns="http://www.w3.org/2000/svg">
<path d="M47.6266 48.3895H18V4.17716H47.6266V13.0259H26.6499L37.3198 26.7857L32.3198 32.7857L26.6499 39.5409H47.6266V48.3895ZM61.0987 48.3895H52.8105V2.23478H61.0987V48.3895ZM77.1026 6.39704C77.1026 7.1781 76.9518 7.90778 76.6505 8.58606C76.3691 9.26436 75.9774 9.86043 75.4751 10.3743C74.9727 10.8676 74.3799 11.2684 73.6968 11.5767C73.0338 11.8645 72.3205 12.0084 71.557 12.0084C70.7935 12.0084 70.0701 11.8645 69.387 11.5767C68.7239 11.2684 68.1412 10.8676 67.6389 10.3743C67.1567 9.86043 66.7649 9.26436 66.4635 8.58606C66.1822 7.90778 66.0415 7.1781 66.0415 6.39704C66.0415 5.63653 66.1822 4.91712 66.4635 4.23882C66.7649 3.53998 67.1567 2.94391 67.6389 2.45061C68.1412 1.93675 68.7239 1.53593 69.387 1.24817C70.0701 0.939863 70.7935 0.785706 71.557 0.785706C72.3205 0.785706 73.0338 0.939863 73.6968 1.24817C74.3799 1.53593 74.9727 1.93675 75.4751 2.45061C75.9774 2.94391 76.3691 3.53998 76.6505 4.23882C76.9518 4.91712 77.1026 5.63653 77.1026 6.39704ZM75.686 48.3895H67.3978V15.3689H75.686V48.3895ZM98.1697 48.3895C96.1805 48.3895 94.3119 48.0092 92.5639 47.2487C90.8158 46.4677 89.2787 45.4092 87.9526 44.0731C86.6465 42.7165 85.6118 41.1441 84.8483 39.3558C84.1049 37.5677 83.7331 35.6561 83.7331 33.6212V23.8169H79.7247V15.4306H83.7331V2.23478H91.931V15.4306H104.409V23.8169H91.931V33.6212C91.931 34.5051 92.0917 35.3375 92.4132 36.1185C92.7346 36.879 93.1767 37.5471 93.7393 38.1226C94.3019 38.6982 94.9649 39.1606 95.7285 39.51C96.492 39.8389 97.3058 40.0034 98.1697 40.0034H104.409V48.3895H98.1697ZM121.889 40.3117C122.211 40.4144 122.532 40.4863 122.854 40.5275C123.175 40.548 123.497 40.5583 123.818 40.5583C124.622 40.5583 125.395 40.4453 126.139 40.2192C126.882 39.9931 127.575 39.6745 128.218 39.2634C128.881 38.8317 129.464 38.3178 129.966 37.7218C130.489 37.1051 130.911 36.4268 131.232 35.687L137.26 41.8841C136.496 42.9939 135.612 43.9909 134.608 44.8747C133.623 45.7585 132.548 46.5088 131.383 47.1254C130.238 47.742 129.022 48.2046 127.736 48.5129C126.47 48.8417 125.164 49.0061 123.818 49.0061C121.548 49.0061 119.408 48.5744 117.398 47.7112C115.409 46.848 113.661 45.6455 112.154 44.1039C110.667 42.5624 109.492 40.7331 108.628 38.616C107.764 36.4783 107.332 34.1351 107.332 31.5863C107.332 28.976 107.764 26.5916 108.628 24.4335C109.492 22.2752 110.667 20.4357 112.154 18.9147C113.661 17.3936 115.409 16.2118 117.398 15.3689C119.408 14.5262 121.548 14.1049 123.818 14.1049C125.164 14.1049 126.48 14.2693 127.766 14.5982C129.052 14.9271 130.268 15.3998 131.413 16.0164C132.578 16.6331 133.663 17.3936 134.668 18.298C135.673 19.1818 136.557 20.1787 137.32 21.2886L121.889 40.3117ZM126.109 22.9535C125.727 22.8096 125.345 22.7172 124.963 22.676C124.602 22.635 124.22 22.6143 123.818 22.6143C122.693 22.6143 121.628 22.8302 120.623 23.2618C119.639 23.673 118.775 24.2691 118.031 25.0501C117.308 25.8311 116.735 26.7767 116.313 27.8865C115.891 28.976 115.681 30.2092 115.681 31.5863C115.681 31.8946 115.69 32.2441 115.711 32.6346C115.751 33.0251 115.801 33.426 115.861 33.837C115.942 34.2275 116.032 34.6078 116.133 34.9778C116.233 35.3478 116.364 35.6767 116.524 35.9644L126.109 22.9535Z" fill="#DDDEE6"/>
<mask id="path-2-inside-1" fill="white">
<path d="M194.189 35.5138C194.189 37.3432 193.848 39.0697 193.164 40.6935C192.501 42.2968 191.577 43.7047 190.392 44.9174C189.226 46.1096 187.85 47.0551 186.263 47.7539C184.695 48.4322 183.018 48.7713 181.229 48.7713C179.622 48.7713 178.075 48.4835 176.588 47.9081C175.121 47.3325 173.795 46.4898 172.61 45.3798C171.424 46.4898 170.088 47.3325 168.601 47.9081C167.114 48.4835 165.567 48.7713 163.96 48.7713C162.172 48.7713 160.484 48.4322 158.896 47.7539C157.329 47.0551 155.953 46.1096 154.767 44.9174C153.602 43.7047 152.678 42.2968 151.995 40.6935C151.332 39.0697 151 37.3432 151 35.5138V3.94238H159.65V35.5138C159.65 36.1305 159.76 36.7163 159.981 37.2712C160.202 37.8056 160.504 38.2783 160.886 38.6895C161.287 39.08 161.75 39.3883 162.272 39.6144C162.794 39.8405 163.357 39.9536 163.96 39.9536C164.563 39.9536 165.125 39.8405 165.648 39.6144C166.17 39.3883 166.622 39.08 167.004 38.6895C167.406 38.2783 167.717 37.8056 167.938 37.2712C168.159 36.7163 168.27 36.1305 168.27 35.5138V3.94238H176.92V35.5138C176.92 36.1305 177.03 36.7163 177.251 37.2712C177.472 37.8056 177.773 38.2783 178.155 38.6895C178.557 39.08 179.019 39.3883 179.542 39.6144C180.064 39.8405 180.627 39.9536 181.229 39.9536C181.832 39.9536 182.395 39.8405 182.917 39.6144C183.44 39.3883 183.892 39.08 184.273 38.6895C184.675 38.2783 184.987 37.8056 185.208 37.2712C185.449 36.7163 185.569 36.1305 185.569 35.5138V3.94238H194.189V35.5138ZM231.833 31.3516C231.833 33.8181 231.401 36.1202 230.537 38.2578C229.673 40.3749 228.497 42.2146 227.011 43.7766C225.524 45.3183 223.776 46.5412 221.766 47.4456C219.777 48.3295 217.637 48.7713 215.347 48.7713C213.076 48.7713 210.936 48.3295 208.927 47.4456C206.938 46.5412 205.19 45.3183 203.683 43.7766C202.196 42.2146 201.021 40.3749 200.157 38.2578C199.293 36.1202 198.861 33.8181 198.861 31.3516C198.861 28.8439 199.293 26.5212 200.157 24.3836C201.021 22.246 202.196 20.4063 203.683 18.8648C205.19 17.3026 206.938 16.0797 208.927 15.1958C210.936 14.3121 213.076 13.8701 215.347 13.8701C217.637 13.8701 219.777 14.2914 221.766 15.1342C223.776 15.9564 225.524 17.1382 227.011 18.6799C228.497 20.2009 229.673 22.0404 230.537 24.1987C231.401 26.3363 231.833 28.7206 231.833 31.3516ZM223.545 31.3516C223.545 29.995 223.324 28.772 222.882 27.6826C222.46 26.5727 221.877 25.6272 221.133 24.8461C220.39 24.0445 219.516 23.4382 218.511 23.027C217.527 22.5955 216.472 22.3796 215.347 22.3796C214.222 22.3796 213.157 22.5955 212.152 23.027C211.167 23.4382 210.303 24.0445 209.56 24.8461C208.837 25.6272 208.264 26.5727 207.842 27.6826C207.42 28.772 207.209 29.995 207.209 31.3516C207.209 32.6259 207.42 33.8078 207.842 34.8971C208.264 35.9866 208.837 36.932 209.56 37.7337C210.303 38.5353 211.167 39.1725 212.152 39.6452C213.157 40.0974 214.222 40.3235 215.347 40.3235C216.472 40.3235 217.527 40.1076 218.511 39.6761C219.516 39.2444 220.39 38.6381 221.133 37.857C221.877 37.0759 222.46 36.1305 222.882 35.0205C223.324 33.9105 223.545 32.6876 223.545 31.3516ZM244.612 48.1547H236.384V15.1342H238.373L241.085 19.0497C242.412 17.8165 243.918 16.8711 245.606 16.2133C247.294 15.535 249.042 15.1958 250.851 15.1958H258.114V23.5821H250.851C249.986 23.5821 249.173 23.7465 248.409 24.0753C247.646 24.4043 246.983 24.8565 246.42 25.4319C245.857 26.0075 245.415 26.6858 245.094 27.4668C244.772 28.2478 244.612 29.0804 244.612 29.9641V48.1547ZM270.229 48.1547H261.942V2H270.229V31.1049L282.496 15.1958H291.96L281.26 28.9467L291.96 48.1547H282.496L275.957 36.1612L270.229 43.9308V48.1547ZM312.937 48.1547H294.13V39.7686H312.937C313.5 39.7686 313.982 39.563 314.384 39.1519C314.785 38.7408 314.986 38.2475 314.986 37.672C314.986 37.0759 314.785 36.6854 314.384 36.5004C313.982 36.3154 313.5 36.2229 312.937 36.2229H304.377C302.951 36.2229 301.614 35.9454 300.369 35.3905C299.124 34.8355 298.038 34.0853 297.114 33.1398C296.189 32.1737 295.456 31.0536 294.913 29.7792C294.391 28.5048 294.13 27.138 294.13 25.6785C294.13 24.2192 294.391 22.8524 294.913 21.578C295.456 20.3036 296.189 19.1936 297.114 18.2482C298.038 17.3026 299.124 16.5628 300.369 16.0284C301.614 15.4733 302.951 15.1958 304.377 15.1958H321.044V23.5821H304.377C303.815 23.5821 303.333 23.7875 302.93 24.1987C302.529 24.6097 302.327 25.1031 302.327 25.6785C302.327 26.2746 302.529 26.7885 302.93 27.2202C303.333 27.6312 303.815 27.8368 304.377 27.8368H312.937C314.344 27.8368 315.669 28.0834 316.915 28.5768C318.161 29.0495 319.246 29.7175 320.171 30.5807C321.094 31.4441 321.828 32.4821 322.37 33.6948C322.913 34.9075 323.184 36.2332 323.184 37.672C323.184 39.1314 322.913 40.4983 322.37 41.7725C321.828 43.0264 321.094 44.1364 320.171 45.1024C319.246 46.0479 318.161 46.7981 316.915 47.353C315.669 47.8875 314.344 48.1547 312.937 48.1547Z"/>
</mask>
<path d="M194.189 35.5138C194.189 37.3432 193.848 39.0697 193.164 40.6935C192.501 42.2968 191.577 43.7047 190.392 44.9174C189.226 46.1096 187.85 47.0551 186.263 47.7539C184.695 48.4322 183.018 48.7713 181.229 48.7713C179.622 48.7713 178.075 48.4835 176.588 47.9081C175.121 47.3325 173.795 46.4898 172.61 45.3798C171.424 46.4898 170.088 47.3325 168.601 47.9081C167.114 48.4835 165.567 48.7713 163.96 48.7713C162.172 48.7713 160.484 48.4322 158.896 47.7539C157.329 47.0551 155.953 46.1096 154.767 44.9174C153.602 43.7047 152.678 42.2968 151.995 40.6935C151.332 39.0697 151 37.3432 151 35.5138V3.94238H159.65V35.5138C159.65 36.1305 159.76 36.7163 159.981 37.2712C160.202 37.8056 160.504 38.2783 160.886 38.6895C161.287 39.08 161.75 39.3883 162.272 39.6144C162.794 39.8405 163.357 39.9536 163.96 39.9536C164.563 39.9536 165.125 39.8405 165.648 39.6144C166.17 39.3883 166.622 39.08 167.004 38.6895C167.406 38.2783 167.717 37.8056 167.938 37.2712C168.159 36.7163 168.27 36.1305 168.27 35.5138V3.94238H176.92V35.5138C176.92 36.1305 177.03 36.7163 177.251 37.2712C177.472 37.8056 177.773 38.2783 178.155 38.6895C178.557 39.08 179.019 39.3883 179.542 39.6144C180.064 39.8405 180.627 39.9536 181.229 39.9536C181.832 39.9536 182.395 39.8405 182.917 39.6144C183.44 39.3883 183.892 39.08 184.273 38.6895C184.675 38.2783 184.987 37.8056 185.208 37.2712C185.449 36.7163 185.569 36.1305 185.569 35.5138V3.94238H194.189V35.5138ZM231.833 31.3516C231.833 33.8181 231.401 36.1202 230.537 38.2578C229.673 40.3749 228.497 42.2146 227.011 43.7766C225.524 45.3183 223.776 46.5412 221.766 47.4456C219.777 48.3295 217.637 48.7713 215.347 48.7713C213.076 48.7713 210.936 48.3295 208.927 47.4456C206.938 46.5412 205.19 45.3183 203.683 43.7766C202.196 42.2146 201.021 40.3749 200.157 38.2578C199.293 36.1202 198.861 33.8181 198.861 31.3516C198.861 28.8439 199.293 26.5212 200.157 24.3836C201.021 22.246 202.196 20.4063 203.683 18.8648C205.19 17.3026 206.938 16.0797 208.927 15.1958C210.936 14.3121 213.076 13.8701 215.347 13.8701C217.637 13.8701 219.777 14.2914 221.766 15.1342C223.776 15.9564 225.524 17.1382 227.011 18.6799C228.497 20.2009 229.673 22.0404 230.537 24.1987C231.401 26.3363 231.833 28.7206 231.833 31.3516ZM223.545 31.3516C223.545 29.995 223.324 28.772 222.882 27.6826C222.46 26.5727 221.877 25.6272 221.133 24.8461C220.39 24.0445 219.516 23.4382 218.511 23.027C217.527 22.5955 216.472 22.3796 215.347 22.3796C214.222 22.3796 213.157 22.5955 212.152 23.027C211.167 23.4382 210.303 24.0445 209.56 24.8461C208.837 25.6272 208.264 26.5727 207.842 27.6826C207.42 28.772 207.209 29.995 207.209 31.3516C207.209 32.6259 207.42 33.8078 207.842 34.8971C208.264 35.9866 208.837 36.932 209.56 37.7337C210.303 38.5353 211.167 39.1725 212.152 39.6452C213.157 40.0974 214.222 40.3235 215.347 40.3235C216.472 40.3235 217.527 40.1076 218.511 39.6761C219.516 39.2444 220.39 38.6381 221.133 37.857C221.877 37.0759 222.46 36.1305 222.882 35.0205C223.324 33.9105 223.545 32.6876 223.545 31.3516ZM244.612 48.1547H236.384V15.1342H238.373L241.085 19.0497C242.412 17.8165 243.918 16.8711 245.606 16.2133C247.294 15.535 249.042 15.1958 250.851 15.1958H258.114V23.5821H250.851C249.986 23.5821 249.173 23.7465 248.409 24.0753C247.646 24.4043 246.983 24.8565 246.42 25.4319C245.857 26.0075 245.415 26.6858 245.094 27.4668C244.772 28.2478 244.612 29.0804 244.612 29.9641V48.1547ZM270.229 48.1547H261.942V2H270.229V31.1049L282.496 15.1958H291.96L281.26 28.9467L291.96 48.1547H282.496L275.957 36.1612L270.229 43.9308V48.1547ZM312.937 48.1547H294.13V39.7686H312.937C313.5 39.7686 313.982 39.563 314.384 39.1519C314.785 38.7408 314.986 38.2475 314.986 37.672C314.986 37.0759 314.785 36.6854 314.384 36.5004C313.982 36.3154 313.5 36.2229 312.937 36.2229H304.377C302.951 36.2229 301.614 35.9454 300.369 35.3905C299.124 34.8355 298.038 34.0853 297.114 33.1398C296.189 32.1737 295.456 31.0536 294.913 29.7792C294.391 28.5048 294.13 27.138 294.13 25.6785C294.13 24.2192 294.391 22.8524 294.913 21.578C295.456 20.3036 296.189 19.1936 297.114 18.2482C298.038 17.3026 299.124 16.5628 300.369 16.0284C301.614 15.4733 302.951 15.1958 304.377 15.1958H321.044V23.5821H304.377C303.815 23.5821 303.333 23.7875 302.93 24.1987C302.529 24.6097 302.327 25.1031 302.327 25.6785C302.327 26.2746 302.529 26.7885 302.93 27.2202C303.333 27.6312 303.815 27.8368 304.377 27.8368H312.937C314.344 27.8368 315.669 28.0834 316.915 28.5768C318.161 29.0495 319.246 29.7175 320.171 30.5807C321.094 31.4441 321.828 32.4821 322.37 33.6948C322.913 34.9075 323.184 36.2332 323.184 37.672C323.184 39.1314 322.913 40.4983 322.37 41.7725C321.828 43.0264 321.094 44.1364 320.171 45.1024C319.246 46.0479 318.161 46.7981 316.915 47.353C315.669 47.8875 314.344 48.1547 312.937 48.1547Z" fill="#DDDEE6" stroke="#DDDEE6" stroke-width="22" mask="url(#path-2-inside-1)"/>
<path d="M38.1246 27.5313C37.9443 27.1317 37.5539 26.8744 37.123 26.873L23.9947 26.8304L37.0192 5.9455C37.2364 5.59718 37.2511 5.15522 37.0574 4.79307C36.8635 4.42973 36.4919 4.20407 36.0887 4.20276L18.3627 4.14519C17.9428 4.14383 17.5587 4.3851 17.3692 4.76871L0.64063 38.7146C0.467729 39.0643 0.4852 39.4814 0.685739 39.8163C0.887446 40.1513 1.24239 40.3564 1.62681 40.3577L13.0191 40.3947L0.507367 70.5145C0.294071 71.0295 0.48051 71.6285 0.945907 71.9224C1.12497 72.0353 1.32421 72.0902 1.52259 72.0909C1.84054 72.0919 2.15453 71.9535 2.37259 71.6913L37.9645 28.7399C38.2435 28.4032 38.3049 27.9319 38.1246 27.5313Z" fill="#F47629"/>
</svg>
